<?xml version="1.0" encoding="UTF-8"?>
<svg width="192" height="192" viewBox="0 0 192 192" xmlns="http://www.w3.org/2000/svg">
  <defs>
    <linearGradient id="wall" x1="0" y1="0" x2="0" y2="1">
      <stop offset="0" stop-color="#e5e7eb"/>
      <stop offset="1" stop-color="#a9b2bd"/>
    </linearGradient>
    <linearGradient id="roof" x1="0" y1="0" x2="0" y2="1">
      <stop offset="0" stop-color="#c0392b"/>
      <stop offset="1" stop-color="#8e2a1f"/>
    </linearGradient>
    <filter id="sh" x="-20%" y="-20%" width="140%" height="140%">
      <feDropShadow dx="0" dy="2" stdDeviation="2" flood-color="#000" flood-opacity="0.35"/>
    </filter>
  </defs>
  <g filter="url(#sh)">
    <rect x="20" y="60" width="152" height="112" rx="10" fill="url(#wall)" />
    <rect x="72" y="32" width="48" height="40" fill="url(#wall)"/>
    <path d="M64 32h64l-12-16H76z" fill="url(#roof)"/>
    <g fill="#7a828d">
      <rect x="36" y="84" width="24" height="32" rx="4"/>
      <rect x="132" y="84" width="24" height="32" rx="4"/>
      <rect x="84" y="112" width="24" height="60" rx="6"/>
    </g>
    <g fill="#cfd5db" opacity="0.7">
      <rect x="20" y="60" width="152" height="10" rx="5"/>
      <rect x="72" y="32" width="48" height="8" rx="4"/>
    </g>
    <g fill="#9aa3ad">
      <rect x="24" y="44" width="20" height="16"/>
      <rect x="52" y="44" width="20" height="16"/>
      <rect x="80" y="44" width="20" height="16"/>
      <rect x="108" y="44" width="20" height="16"/>
      <rect x="136" y="44" width="20" height="16"/>
    </g>
  </g>
</svg>
